<?xml version="1.0" encoding="UTF-8"?>
<svg id="svg2" width="660.07" height="621.05" version="1.1" viewBox="0 0 660.07 621.05" xmlns="http://www.w3.org/2000/svg">
 <g id="g8" transform="translate(-12.661 -12.665)">
  <path id="path972" d="m171.33 47.331c5.51 33.463 12.931 56.638-16 77.961-15.611 13.566-27.256 32.506-43.147 45.258-12.729 6.5112-49.702 1.9008-63.52-0.552-15.896 27.979-27.415 57.04-36 88 13.74 10.839 35.03 39.1 53.333 38.667 0 0-3.7535 77.864-8.0975 90.54-10.823 15.005-30.646 29.781-45.236 41.46l25.333 69.333c7.2999 3.0766 54.667 9.3333 54.667 9.3333 42.846 3.5618 33.39 58.188 89.333 46.667-0.58267 3.5973-2.0227 9.1187 1.2413 11.927 4.892 4.2067 11.732-3.6747 17.355-1.764 14.217 4.8347 19.673 28.956 37.404 16.504 3.7013 14.851 13.687 53.584 34.496 53.045 20.488-0.53139 4.4884-62.596 42.837-63.672 20.651-0.58 53.088-5.3133 69.008 10.925 11.853 12.091 12.075 52.031 28.22 50.792 7.5086-0.57759 21.482-24.013 22.772-55.091 21.444 13.563 26.752-8.56 45.333-14.993 5.74-1.9867 13.941 4.92 18.68 1.088 3.448-2.788 0.0213-8.492-1.3467-11.428 42.394 4.411 54.309-1.7591 78.667-45.333 21.733 0.0186 43.432 2.3303 65.159 2.0175 25.063-43.478 31.526-72.169 30.861-76.667-2.6627-18.009-34.135-27.241-42.481-42.756 1.0492-27.862-1.7371-56.851-1.7026-85.259 0.5226-18.741 33.68-29.717 42.796-44.609 3.9746-6.4947-1.3827-16.932-3.5227-23.393-6.516-19.676-14.056-42.933-26.537-59.737-9.7165-13.082-44.348 5.0806-63.025-2.8227-19.254-20.18-39.188-39.348-60.04-58.539-15.909-14.83 2.8533-45.372-3.6213-63.771-3.7971-10.792-75.364-40.243-86.775-35.015-16.16 9.3503-22.567 33.948-39.556 41.756-28.218-5.2401-60.927 7.002-88.761 0.59014-14.838-10.225-30.44-30.765-41.46-45.129-31.076 6.8521-58.048 21.65-86.667 34.667m400 218.67c-58.811-77.28-132.88-36.259-148 72-5.6961-38.458-2.784-80.802-2.6637-120 0.048-12.817 0.236-30.379 10.848-39.352 27.151-22.959 139.81-3.7565 139.82 87.352m-301.33 53.333c-17.741-99.887-99.185-127.23-144-54.667-19.677-64.952 99.732-95.512 123.92-85.012 23.958 10.404 30.488 86.873 21.37 139.76m-46.625-96.083c4.9987 13.947 17.988 23.353 25.46 36 7.3773 12.484 9.6893 32.056 22.54 40-3.912-24.796-18.472-72.137-48-76m200 77.333c10.881-7.5027 13.669-23.524 19.867-34.667 7.652-13.757 22.061-25.045 26.8-40-27.912 4.5307-44.212 50.151-46.667 74.667m-265.33-45.333c5.248-20.648 30.383-14.301 44.981-8.217m340.35 21.55c-18.287-11.047-31.34-18.643-53.333-18.667 19.048-16.336 44.549-0.956 53.333 18.667m-358.88-1.5683c65.842-8.7621 89.853 89.984 78.493 104.83-12.506 16.341-80.592 23.763-103.36 2.9227-13.289-12.164-18.455-33.685-24.245-50.181l-4 1.3333-5.3333-17.333c24.279-2.7813 31.001-32.739 54.419-40.551m333.56 2.2935c32.581 18.991 36.479 42.511 54.983 39.923l-4.2908 25.001-5.3333-9.3333c-8.7187 20.864-12.745 50.585-37.333 58.465-40.885 13.104-102.27 2.0381-98.031-29.132 13.385-38.996 40.596-87.636 85.953-86.757m-86.589 302.76c0 17.777-2.26 32.136-10.667 48-9.4-5.8107-23.309-33.763-13.443-43.903 5.54-5.6933 16.941-4.096 24.109-4.0973m-145.33 4-8 46.667c-16.293-9.2187-22.787-30.32-24-48l32 1.3333"/>
 </g>
</svg>
